<svg width="2785" height="2043" viewBox="0 0 2785 2043" fill="none" xmlns="http://www.w3.org/2000/svg">
<rect width="2785" height="2043" fill="#F5F5F5"/>
<g id="six">
<path id="Vector" d="M277.666 1649C271.775 1649 266.999 1644.22 266.999 1638.33C267.689 1627.79 271.674 1617.73 278.391 1609.58C284.267 1602.67 287.754 1594.05 288.332 1585C288.332 1577.19 278.561 1570.07 269.132 1563.03C257.591 1554.49 245.665 1545.73 245.665 1531.67C246.514 1519.72 251.615 1508.47 260.044 1499.97C263.137 1496.13 266.999 1491.43 266.999 1489C266.999 1483.11 271.775 1478.33 277.666 1478.33C283.557 1478.33 288.333 1483.11 288.333 1489C287.382 1498.23 283.249 1506.85 276.642 1513.36C271.519 1518.25 268.133 1524.68 266.999 1531.67C266.999 1534.95 275.895 1541.52 281.762 1545.85C294.199 1555.03 309.666 1566.42 309.666 1585C309.175 1598.33 304.402 1611.14 296.055 1621.55C291.886 1626.26 289.199 1632.1 288.332 1638.33C288.333 1644.22 283.557 1649 277.666 1649Z" fill="#607D8B"/>
<path id="Vector_2" d="M327.885 1481.45L295.885 1449.45C291.72 1445.28 284.968 1445.28 280.802 1449.45L248.802 1481.45C247.308 1482.94 246.29 1484.84 245.877 1486.91C245.463 1488.98 245.673 1491.12 246.479 1493.07C247.285 1495.02 248.652 1496.69 250.406 1497.87C252.16 1499.04 254.223 1499.67 256.333 1499.67H320.333C322.445 1499.67 324.511 1499.05 326.269 1497.88C328.027 1496.7 329.397 1495.04 330.206 1493.08C331.014 1491.13 331.226 1488.99 330.813 1486.91C330.399 1484.84 329.381 1482.94 327.885 1481.45Z" fill="#C62828"/>
<path id="Vector_3" d="M288.333 1137C205.897 1137.09 139.094 1203.9 139 1286.33C139 1370.41 229.368 1467.67 288.333 1467.67C347.298 1467.67 437.666 1370.41 437.666 1286.33C437.572 1203.9 370.769 1137.09 288.333 1137Z" fill="#F44336"/>
<path id="Vector_4" d="M192.333 1297C186.442 1297 181.666 1292.22 181.666 1286.33C181.737 1227.45 229.452 1179.74 288.333 1179.67C294.224 1179.67 299 1184.44 299 1190.33C299 1196.22 294.224 1201 288.333 1201C241.205 1201 203 1239.2 203 1286.33C203 1292.22 198.224 1297 192.333 1297Z" fill="#E57373"/>
</g>
<g id="five">
<path id="Vector_5" d="M1076.67 2043C1070.78 2043 1066 2038.22 1066 2032.33C1066.69 2021.79 1070.67 2011.73 1077.39 2003.58C1083.27 1996.67 1086.75 1988.05 1087.33 1979C1087.33 1971.19 1077.56 1964.07 1068.13 1957.03C1056.59 1948.49 1044.67 1939.73 1044.67 1925.67C1045.51 1913.72 1050.62 1902.47 1059.04 1893.97C1062.14 1890.13 1066 1885.43 1066 1883C1066 1877.11 1070.78 1872.33 1076.67 1872.33C1082.56 1872.33 1087.33 1877.11 1087.33 1883C1086.38 1892.23 1082.25 1900.85 1075.64 1907.36C1070.52 1912.25 1067.13 1918.68 1066 1925.67C1066 1928.95 1074.9 1935.52 1080.76 1939.85C1093.2 1949.03 1108.67 1960.42 1108.67 1979C1108.17 1992.33 1103.4 2005.14 1095.05 2015.55C1090.89 2020.26 1088.2 2026.1 1087.33 2032.33C1087.33 2038.22 1082.56 2043 1076.67 2043Z" fill="#607D8B"/>
<path id="Vector_6" d="M1126.88 1875.45L1094.88 1843.45C1090.72 1839.28 1083.97 1839.28 1079.8 1843.45L1047.8 1875.45C1046.31 1876.94 1045.29 1878.84 1044.88 1880.91C1044.46 1882.98 1044.67 1885.12 1045.48 1887.07C1046.29 1889.02 1047.65 1890.69 1049.41 1891.87C1051.16 1893.04 1053.22 1893.67 1055.33 1893.67H1119.33C1121.45 1893.67 1123.51 1893.05 1125.27 1891.88C1127.03 1890.7 1128.4 1889.04 1129.21 1887.08C1130.01 1885.13 1130.23 1882.99 1129.81 1880.91C1129.4 1878.84 1128.38 1876.94 1126.88 1875.45Z" fill="#C62828"/>
<path id="Vector_7" d="M1087.33 1531C1004.9 1531.09 938.094 1597.9 938 1680.33C938 1764.41 1028.37 1861.67 1087.33 1861.67C1146.3 1861.67 1236.67 1764.41 1236.67 1680.33C1236.57 1597.9 1169.77 1531.09 1087.33 1531Z" fill="#36DDF4"/>
<path id="Vector_8" d="M991.333 1691C985.442 1691 980.666 1686.22 980.666 1680.33C980.737 1621.45 1028.45 1573.74 1087.33 1573.67C1093.22 1573.67 1098 1578.44 1098 1584.33C1098 1590.22 1093.22 1595 1087.33 1595C1040.2 1595 1002 1633.2 1002 1680.33C1002 1686.22 997.224 1691 991.333 1691Z" fill="#F7DADA"/>
</g>
<g id="four">
<path id="Vector_9" d="M1914.67 608C1908.78 608 1904 603.224 1904 597.333C1904.69 586.79 1908.67 576.731 1915.39 568.576C1921.27 561.67 1924.75 553.049 1925.33 544C1925.33 536.192 1915.56 529.067 1906.13 522.027C1894.59 513.494 1882.67 504.726 1882.67 490.667C1883.51 478.721 1888.62 467.474 1897.04 458.966C1900.14 455.126 1904 450.433 1904 448.001C1904 442.11 1908.78 437.334 1914.67 437.334C1920.56 437.334 1925.33 442.11 1925.33 448.001C1924.38 457.233 1920.25 465.846 1913.64 472.364C1908.52 477.252 1905.13 483.679 1904 490.668C1904 493.953 1912.9 500.524 1918.76 504.855C1931.2 514.028 1946.67 525.42 1946.67 544.002C1946.17 557.33 1941.4 570.144 1933.06 580.546C1928.89 585.261 1926.2 591.101 1925.33 597.335C1925.33 603.224 1920.56 608 1914.67 608Z" fill="#607D8B"/>
<path id="Vector_10" d="M1964.88 440.448L1932.88 408.448C1928.72 404.284 1921.97 404.284 1917.8 408.448L1885.8 440.448C1884.31 441.939 1883.29 443.839 1882.88 445.909C1882.46 447.978 1882.67 450.124 1883.48 452.074C1884.29 454.025 1885.65 455.692 1887.41 456.866C1889.16 458.039 1891.22 458.666 1893.33 458.667H1957.33C1959.45 458.671 1961.51 458.047 1963.27 456.875C1965.03 455.703 1966.4 454.036 1967.21 452.085C1968.01 450.133 1968.23 447.986 1967.81 445.914C1967.4 443.842 1966.38 441.94 1964.88 440.448Z" fill="#C62828"/>
<path id="Vector_11" d="M1925.33 96C1842.9 96.094 1776.09 162.898 1776 245.333C1776 329.408 1866.37 426.666 1925.33 426.666C1984.3 426.666 2074.67 329.407 2074.67 245.333C2074.57 162.898 2007.77 96.094 1925.33 96Z" fill="#36DDF4"/>
<path id="Vector_12" d="M1829.33 256C1823.44 256 1818.67 251.224 1818.67 245.333C1818.74 186.452 1866.45 138.737 1925.33 138.667C1931.22 138.667 1936 143.443 1936 149.334C1936 155.225 1931.22 160 1925.33 160C1878.21 160 1840 198.205 1840 245.333C1840 251.224 1835.22 256 1829.33 256Z" fill="#F7DADA"/>
</g>
<g id="three">
<path id="Vector_13" d="M738.666 512C732.775 512 727.999 507.224 727.999 501.333C728.689 490.79 732.674 480.731 739.391 472.576C745.267 465.67 748.754 457.049 749.332 448C749.332 440.192 739.561 433.067 730.132 426.027C718.591 417.494 706.665 408.726 706.665 394.667C707.514 382.721 712.615 371.474 721.044 362.966C724.137 359.126 727.999 354.433 727.999 352.001C727.999 346.11 732.775 341.334 738.666 341.334C744.557 341.334 749.333 346.11 749.333 352.001C748.382 361.233 744.249 369.846 737.642 376.364C732.519 381.252 729.133 387.679 727.999 394.668C727.999 397.953 736.895 404.524 742.762 408.855C755.199 418.028 770.666 429.42 770.666 448.002C770.175 461.33 765.402 474.144 757.055 484.546C752.886 489.261 750.199 495.101 749.332 501.335C749.333 507.224 744.557 512 738.666 512Z" fill="#607D8B"/>
<path id="Vector_14" d="M788.885 344.448L756.885 312.448C752.72 308.284 745.968 308.284 741.802 312.448L709.802 344.448C708.308 345.939 707.29 347.839 706.877 349.909C706.463 351.978 706.673 354.124 707.479 356.074C708.285 358.025 709.652 359.692 711.406 360.866C713.16 362.039 715.223 362.666 717.333 362.667H781.333C783.445 362.671 785.511 362.047 787.269 360.875C789.027 359.703 790.397 358.036 791.206 356.085C792.014 354.133 792.226 351.986 791.813 349.914C791.399 347.842 790.381 345.94 788.885 344.448Z" fill="#C62828"/>
<path id="Vector_15" d="M749.333 0C666.897 0.094 600.094 66.898 600 149.333C600 233.408 690.368 330.666 749.333 330.666C808.298 330.666 898.666 233.407 898.666 149.333C898.572 66.898 831.769 0.094 749.333 0Z" fill="#F44336"/>
<path id="Vector_16" d="M653.333 160C647.442 160 642.666 155.224 642.666 149.333C642.737 90.452 690.452 42.737 749.333 42.667C755.224 42.667 760 47.443 760 53.334C760 59.225 755.224 64 749.333 64C702.205 64 664 102.205 664 149.333C664 155.224 659.224 160 653.333 160Z" fill="#E57373"/>
</g>
<g id="two">
<path id="Vector_17" d="M1401.67 1275C1395.77 1275 1391 1270.22 1391 1264.33C1391.69 1253.79 1395.67 1243.73 1402.39 1235.58C1408.27 1228.67 1411.75 1220.05 1412.33 1211C1412.33 1203.19 1402.56 1196.07 1393.13 1189.03C1381.59 1180.49 1369.66 1171.73 1369.66 1157.67C1370.51 1145.72 1375.62 1134.47 1384.04 1125.97C1387.14 1122.13 1391 1117.43 1391 1115C1391 1109.11 1395.77 1104.33 1401.67 1104.33C1407.56 1104.33 1412.33 1109.11 1412.33 1115C1411.38 1124.23 1407.25 1132.85 1400.64 1139.36C1395.52 1144.25 1392.13 1150.68 1391 1157.67C1391 1160.95 1399.89 1167.52 1405.76 1171.86C1418.2 1181.03 1433.67 1192.42 1433.67 1211C1433.17 1224.33 1428.4 1237.14 1420.05 1247.55C1415.89 1252.26 1413.2 1258.1 1412.33 1264.33C1412.33 1270.22 1407.56 1275 1401.67 1275Z" fill="#607D8B"/>
<path id="Vector_18" d="M1451.88 1107.45L1419.88 1075.45C1415.72 1071.28 1408.97 1071.28 1404.8 1075.45L1372.8 1107.45C1371.31 1108.94 1370.29 1110.84 1369.88 1112.91C1369.46 1114.98 1369.67 1117.12 1370.48 1119.07C1371.29 1121.02 1372.65 1122.69 1374.41 1123.87C1376.16 1125.04 1378.22 1125.67 1380.33 1125.67H1444.33C1446.45 1125.67 1448.51 1125.05 1450.27 1123.88C1452.03 1122.7 1453.4 1121.04 1454.21 1119.08C1455.01 1117.13 1455.23 1114.99 1454.81 1112.91C1454.4 1110.84 1453.38 1108.94 1451.88 1107.45Z" fill="#C98080"/>
<path id="Vector_19" d="M1412.33 763C1329.9 763.094 1263.09 829.898 1263 912.333C1263 996.408 1353.37 1093.67 1412.33 1093.67C1471.3 1093.67 1561.67 996.407 1561.67 912.333C1561.57 829.898 1494.77 763.094 1412.33 763Z" fill="#F4369D"/>
<path id="Vector_20" d="M1316.33 923C1310.44 923 1305.67 918.224 1305.67 912.333C1305.74 853.452 1353.45 805.737 1412.33 805.667C1418.22 805.667 1423 810.443 1423 816.334C1423 822.225 1418.22 827 1412.33 827C1365.21 827 1327 865.205 1327 912.333C1327 918.224 1322.22 923 1316.33 923Z" fill="white"/>
</g>
<g id="one">
<path id="Vector_21" d="M138.666 821C132.775 821 127.999 816.224 127.999 810.333C128.689 799.79 132.674 789.731 139.391 781.576C145.267 774.67 148.754 766.049 149.332 757C149.332 749.192 139.561 742.067 130.132 735.027C118.591 726.494 106.665 717.726 106.665 703.667C107.514 691.721 112.615 680.474 121.044 671.966C124.137 668.126 127.999 663.433 127.999 661.001C127.999 655.11 132.775 650.334 138.666 650.334C144.557 650.334 149.333 655.11 149.333 661.001C148.382 670.233 144.249 678.846 137.642 685.364C132.519 690.252 129.133 696.679 127.999 703.668C127.999 706.953 136.895 713.524 142.762 717.855C155.199 727.028 170.666 738.42 170.666 757.002C170.175 770.33 165.402 783.144 157.055 793.546C152.886 798.261 150.199 804.101 149.332 810.335C149.333 816.224 144.557 821 138.666 821Z" fill="#607D8B"/>
<path id="Vector_22" d="M188.885 653.448L156.885 621.448C152.72 617.284 145.968 617.284 141.802 621.448L109.802 653.448C108.308 654.939 107.29 656.839 106.877 658.909C106.463 660.978 106.673 663.124 107.479 665.074C108.285 667.025 109.652 668.692 111.406 669.866C113.16 671.039 115.223 671.666 117.333 671.667H181.333C183.445 671.671 185.511 671.047 187.269 669.875C189.027 668.703 190.397 667.036 191.206 665.085C192.014 663.133 192.226 660.986 191.813 658.914C191.399 656.842 190.381 654.94 188.885 653.448Z" fill="#C62828"/>
<path id="Vector_23" d="M149.333 309C66.897 309.094 0.094 375.898 0 458.333C0 542.408 90.368 639.666 149.333 639.666C208.298 639.666 298.666 542.407 298.666 458.333C298.572 375.898 231.769 309.094 149.333 309Z" fill="#ECFF0F"/>
<path id="Vector_24" d="M53.333 469C47.442 469 42.666 464.224 42.666 458.333C42.737 399.452 90.452 351.737 149.333 351.667C155.224 351.667 160 356.443 160 362.334C160 368.225 155.224 373 149.333 373C102.205 373 64 411.205 64 458.333C64 464.224 59.224 469 53.333 469Z" fill="#F6EDED"/>
</g>
<g id="eight">
<path id="Vector_25" d="M2624.67 763C2618.78 763 2614 758.224 2614 752.333C2614.69 741.79 2618.67 731.731 2625.39 723.576C2631.27 716.67 2634.75 708.049 2635.33 699C2635.33 691.192 2625.56 684.067 2616.13 677.027C2604.59 668.494 2592.67 659.726 2592.67 645.667C2593.51 633.721 2598.62 622.474 2607.04 613.966C2610.14 610.126 2614 605.433 2614 603.001C2614 597.11 2618.78 592.334 2624.67 592.334C2630.56 592.334 2635.33 597.11 2635.33 603.001C2634.38 612.233 2630.25 620.846 2623.64 627.364C2618.52 632.252 2615.13 638.679 2614 645.668C2614 648.953 2622.9 655.524 2628.76 659.855C2641.2 669.028 2656.67 680.42 2656.67 699.002C2656.17 712.33 2651.4 725.144 2643.06 735.546C2638.89 740.261 2636.2 746.101 2635.33 752.335C2635.33 758.224 2630.56 763 2624.67 763Z" fill="#607D8B"/>
<path id="Vector_26" d="M2674.88 595.448L2642.88 563.448C2638.72 559.284 2631.97 559.284 2627.8 563.448L2595.8 595.448C2594.31 596.939 2593.29 598.839 2592.88 600.909C2592.46 602.978 2592.67 605.124 2593.48 607.074C2594.29 609.025 2595.65 610.692 2597.41 611.866C2599.16 613.039 2601.22 613.666 2603.33 613.667H2667.33C2669.45 613.671 2671.51 613.047 2673.27 611.875C2675.03 610.703 2676.4 609.036 2677.21 607.085C2678.01 605.133 2678.23 602.986 2677.81 600.914C2677.4 598.842 2676.38 596.94 2674.88 595.448Z" fill="#C62828"/>
<path id="Vector_27" d="M2635.33 251C2552.9 251.094 2486.09 317.898 2486 400.333C2486 484.408 2576.37 581.666 2635.33 581.666C2694.3 581.666 2784.67 484.407 2784.67 400.333C2784.57 317.898 2717.77 251.094 2635.33 251Z" fill="#ECFF0F"/>
<path id="Vector_28" d="M2539.33 411C2533.44 411 2528.67 406.224 2528.67 400.333C2528.74 341.452 2576.45 293.737 2635.33 293.667C2641.22 293.667 2646 298.443 2646 304.334C2646 310.225 2641.22 315 2635.33 315C2588.21 315 2550 353.205 2550 400.333C2550 406.224 2545.22 411 2539.33 411Z" fill="#F6EDED"/>
</g>
<g id="seven">
<path id="Vector_29" d="M2464.67 1990C2458.78 1990 2454 1985.22 2454 1979.33C2454.69 1968.79 2458.67 1958.73 2465.39 1950.58C2471.27 1943.67 2474.75 1935.05 2475.33 1926C2475.33 1918.19 2465.56 1911.07 2456.13 1904.03C2444.59 1895.49 2432.67 1886.73 2432.67 1872.67C2433.51 1860.72 2438.62 1849.47 2447.04 1840.97C2450.14 1837.13 2454 1832.43 2454 1830C2454 1824.11 2458.78 1819.33 2464.67 1819.33C2470.56 1819.33 2475.33 1824.11 2475.33 1830C2474.38 1839.23 2470.25 1847.85 2463.64 1854.36C2458.52 1859.25 2455.13 1865.68 2454 1872.67C2454 1875.95 2462.9 1882.52 2468.76 1886.85C2481.2 1896.03 2496.67 1907.42 2496.67 1926C2496.17 1939.33 2491.4 1952.14 2483.06 1962.55C2478.89 1967.26 2476.2 1973.1 2475.33 1979.33C2475.33 1985.22 2470.56 1990 2464.67 1990Z" fill="#607D8B"/>
<path id="Vector_30" d="M2514.88 1822.45L2482.88 1790.45C2478.72 1786.28 2471.97 1786.28 2467.8 1790.45L2435.8 1822.45C2434.31 1823.94 2433.29 1825.84 2432.88 1827.91C2432.46 1829.98 2432.67 1832.12 2433.48 1834.07C2434.29 1836.02 2435.65 1837.69 2437.41 1838.87C2439.16 1840.04 2441.22 1840.67 2443.33 1840.67H2507.33C2509.45 1840.67 2511.51 1840.05 2513.27 1838.88C2515.03 1837.7 2516.4 1836.04 2517.21 1834.08C2518.01 1832.13 2518.23 1829.99 2517.81 1827.91C2517.4 1825.84 2516.38 1823.94 2514.88 1822.45Z" fill="#C62828"/>
<path id="Vector_31" d="M2475.33 1478C2392.9 1478.09 2326.09 1544.9 2326 1627.33C2326 1711.41 2416.37 1808.67 2475.33 1808.67C2534.3 1808.67 2624.67 1711.41 2624.67 1627.33C2624.57 1544.9 2557.77 1478.09 2475.33 1478Z" fill="#F44336"/>
<path id="Vector_32" d="M2379.33 1638C2373.44 1638 2368.67 1633.22 2368.67 1627.33C2368.74 1568.45 2416.45 1520.74 2475.33 1520.67C2481.22 1520.67 2486 1525.44 2486 1531.33C2486 1537.22 2481.22 1542 2475.33 1542C2428.21 1542 2390 1580.2 2390 1627.33C2390 1633.22 2385.22 1638 2379.33 1638Z" fill="#E57373"/>
</g>
</svg>
